<?xml version="1.0" encoding="utf-8"?>
<!-- Generator: Adobe Illustrator 27.3.1, SVG Export Plug-In . SVG Version: 6.00 Build 0)  -->
<svg version="1.1" id="Layer_1" xmlns="http://www.w3.org/2000/svg" xmlns:xlink="http://www.w3.org/1999/xlink" x="0px" y="0px"
	 viewBox="0 0 512 512" style="enable-background:new 0 0 512 512;" xml:space="preserve">
<style type="text/css">
	.st0{fill:#50E6FF;}
	.st1{fill:url(#SVGID_1_);}
	.st2{clip-path:url(#SVGID_00000135684481105591352760000018095451093014653338_);}
	.st3{fill:#F2F2F2;}
</style>
<path class="st0" d="M87.4,151.6c-2.7,0-4.9-2.2-4.9-4.9c0,0,0,0,0-0.1l0,0c0-30.9-25.1-56-56-56c-2.7,0-4.9-2.2-4.9-4.9l0,0
	c0-2.7,2.2-4.9,4.9-4.9c0,0,0,0,0,0c30.9,0,56-25.1,56-56c0-2.7,2.2-4.9,4.9-4.9c0,0,0,0,0.1,0l0,0c2.7,0,4.9,2.2,4.9,4.9
	c0,0,0,0,0,0.1l0,0c0,30.9,25.1,56,56,56c2.7,0,4.9,2.2,4.9,4.9c0,0,0,0,0,0.1l0,0c0,2.7-2.2,4.9-4.9,4.9c0,0,0,0-0.1,0l0,0
	c-30.9,0-56,25.1-56,56C92.3,149.4,90.1,151.6,87.4,151.6z"/>
<path class="st0" d="M440.3,491.5c-2.2,0-3.9-1.8-3.9-3.9l0,0l0,0c0-24.7-20.1-44.8-44.8-44.8c-2.2,0-3.9-1.7-3.9-3.9l0,0
	c0-2.2,1.8-3.9,3.9-3.9l0,0c24.7,0,44.8-20.1,44.8-44.8c0-2.2,1.8-3.9,3.9-3.9l0,0c2.2,0,3.9,1.8,3.9,3.9l0,0
	c0,24.7,20.1,44.8,44.8,44.8c2.2,0,3.9,1.8,3.9,3.9c0,2.2-1.8,3.9-3.9,3.9c0,0,0,0,0,0l0,0c-24.7,0-44.8,20.1-44.8,44.8
	C444.2,489.7,442.5,491.5,440.3,491.5z"/>
<g>
	
		<radialGradient id="SVGID_1_" cx="107.7537" cy="292.793" r="166.0375" gradientTransform="matrix(1.036 0 0 -1.027 143.047 555.163)" gradientUnits="userSpaceOnUse">
		<stop  offset="0.183" style="stop-color:#5EA0EF"/>
		<stop  offset="1" style="stop-color:#0078D4"/>
	</radialGradient>
	<path class="st1" d="M422.4,214.7c22,91.9-34.8,184.2-126.7,206.2c-91.9,22-184.2-34.8-206.2-126.7S124.3,110,216.2,88c0,0,0,0,0,0
		C308.2,66.1,400.5,122.8,422.4,214.7z"/>
	<g>
		<defs>
			<path id="SVGID_00000178913346812291573860000008288163950923105179_" d="M422.4,214.7c22,91.9-34.8,184.2-126.7,206.2
				c-91.9,22-184.2-34.8-206.2-126.7S124.3,110,216.2,88c0,0,0,0,0,0C308.2,66.1,400.5,122.8,422.4,214.7z"/>
		</defs>
		<clipPath id="SVGID_00000129911255991164112560000018378619591472530874_">
			<use xlink:href="#SVGID_00000178913346812291573860000008288163950923105179_"  style="overflow:visible;"/>
		</clipPath>
		<g style="clip-path:url(#SVGID_00000129911255991164112560000018378619591472530874_);">
			<path class="st3" d="M164.2,370.4c25.2,0.7,46.2-19.2,46.9-44.5c0.7-25.2-19.2-46.2-44.5-46.9c-0.8,0-1.5,0-2.3,0
				c0.1-1.3,0.2-2.6,0.2-3.9c-0.2-25.4-20.9-45.8-46.3-45.6H84c-6.8,51.2,9.5,102.8,44.5,140.8H164.2z"/>
			<path class="st3" d="M424.5,222.7c0-0.4,0-0.8-0.2-1.2c-5.5-29.8-19.1-57.6-39.2-80.3c-2.6-1.1-5.3-1.9-8.1-2.5
				c-26.7-7.6-54.6,7.9-62.2,34.6c-1.1,3.8-1.7,7.8-1.9,11.8c-1.9-0.2-3.7-0.3-5.6-0.4c-26.7,0-48.4,21.7-48.4,48.4
				c0,20.5,12.9,38.8,32.2,45.6c4.8,1.9,9.9,2.8,15.1,2.8h56.6C385.6,264.3,406.3,244.5,424.5,222.7z"/>
		</g>
	</g>
</g>
<path class="st0" d="M484.4,111.6c-17.5-29.2-58.6-40.6-115.8-32c-19.6,2.8-39,7-58.1,12.6c15.1,5.2,29.4,12.4,42.6,21.4
	c6.7-1.5,13.5-3.2,19.9-4.2c10.2-1.6,20.5-2.4,30.8-2.5c20.5-2.9,41,4.7,54.6,20.2l0,0c10.7,17.8,1.7,48.2-24.7,83.6
	c-36.7,45.6-81.6,83.9-132.4,112.9c-49.7,31-104.8,52.4-162.4,63.1c-43.6,6.5-74.8,0-85.5-17.7s-1.7-48.2,24.7-83.5
	c3.3-4.4,4.1-6.5,7.8-10.9c-1.7-15.1-1.5-30.4,0.7-45.4C74.8,241,63.9,253.8,54,267.4c-34.5,46.2-43.9,87.7-26.4,116.9
	c18.8,25.2,49.6,38.4,80.9,34.8c11.7-0.1,23.3-1,34.9-2.8c61.5-11.2,120.3-33.9,173.4-66.9c54.2-31,102.1-72,141.1-120.8
	C492.5,182.3,501.9,140.8,484.4,111.6z"/>
</svg>
